<?xml version="1.0" encoding="UTF-8" standalone="no"?>
<!DOCTYPE svg PUBLIC "-//W3C//DTD SVG 1.1//EN"
 "http://www.w3.org/Graphics/SVG/1.1/DTD/svg11.dtd">
<!-- Generated by graphviz version 2.43.0 (0)
 -->
<!-- Title: dependency&#45;cruiser output Pages: 1 -->
<svg width="470pt" height="404pt"
 viewBox="0.00 0.00 470.00 404.00" xmlns="http://www.w3.org/2000/svg" xmlns:xlink="http://www.w3.org/1999/xlink">
<g id="graph0" class="graph" transform="scale(1 1) rotate(0) translate(4 400)">
<title>dependency&#45;cruiser output</title>
<polygon fill="white" stroke="transparent" points="-4,4 -4,-400 466,-400 466,4 -4,4"/>
<g id="clust1" class="cluster">
<title>cluster_src</title>
<path fill="#ffffff" stroke="black" stroke-width="2" d="M20,-8C20,-8 442,-8 442,-8 448,-8 454,-14 454,-20 454,-20 454,-376 454,-376 454,-382 448,-388 442,-388 442,-388 20,-388 20,-388 14,-388 8,-382 8,-376 8,-376 8,-20 8,-20 8,-14 14,-8 20,-8"/>
<text text-anchor="middle" x="231" y="-376.8" font-family="Helvetica,sans-Serif" font-weight="bold" font-size="9.00">src</text>
</g>
<g id="clust2" class="cluster">
<title>cluster_src/components</title>
<path fill="#ffffff" stroke="black" stroke-width="2" d="M136,-106C136,-106 372,-106 372,-106 378,-106 384,-112 384,-118 384,-118 384,-266 384,-266 384,-272 378,-278 372,-278 372,-278 136,-278 136,-278 130,-278 124,-272 124,-266 124,-266 124,-118 124,-118 124,-112 130,-106 136,-106"/>
<text text-anchor="middle" x="254" y="-266.8" font-family="Helvetica,sans-Serif" font-weight="bold" font-size="9.00">components</text>
</g>
<g id="clust3" class="cluster">
<title>cluster_src/hooks</title>
<path fill="#ffffff" stroke="black" stroke-width="2" d="M278,-286C278,-286 365,-286 365,-286 371,-286 377,-292 377,-298 377,-298 377,-326 377,-326 377,-332 371,-338 365,-338 365,-338 278,-338 278,-338 272,-338 266,-332 266,-326 266,-326 266,-298 266,-298 266,-292 272,-286 278,-286"/>
<text text-anchor="middle" x="321.5" y="-326.8" font-family="Helvetica,sans-Serif" font-weight="bold" font-size="9.00">hooks</text>
</g>
<g id="clust4" class="cluster">
<title>cluster_src/pages</title>
<path fill="#ffffff" stroke="black" stroke-width="2" d="M28,-76C28,-76 104,-76 104,-76 110,-76 116,-82 116,-88 116,-88 116,-236 116,-236 116,-242 110,-248 104,-248 104,-248 28,-248 28,-248 22,-248 16,-242 16,-236 16,-236 16,-88 16,-88 16,-82 22,-76 28,-76"/>
<text text-anchor="middle" x="66" y="-236.8" font-family="Helvetica,sans-Serif" font-weight="bold" font-size="9.00">pages</text>
</g>
<g id="clust5" class="cluster">
<title>cluster_src/pages/api</title>
<path fill="#ffffff" stroke="black" stroke-width="2" d="M43,-170C43,-170 89,-170 89,-170 95,-170 101,-176 101,-182 101,-182 101,-210 101,-210 101,-216 95,-222 89,-222 89,-222 43,-222 43,-222 37,-222 31,-216 31,-210 31,-210 31,-182 31,-182 31,-176 37,-170 43,-170"/>
<text text-anchor="middle" x="66" y="-210.8" font-family="Helvetica,sans-Serif" font-weight="bold" font-size="9.00">api</text>
</g>
<g id="clust6" class="cluster">
<title>cluster_src/styles</title>
<path fill="#ffffff" stroke="black" stroke-width="2" d="M148.5,-16C148.5,-16 237.5,-16 237.5,-16 243.5,-16 249.5,-22 249.5,-28 249.5,-28 249.5,-86 249.5,-86 249.5,-92 243.5,-98 237.5,-98 237.5,-98 148.5,-98 148.5,-98 142.5,-98 136.5,-92 136.5,-86 136.5,-86 136.5,-28 136.5,-28 136.5,-22 142.5,-16 148.5,-16"/>
<text text-anchor="middle" x="193" y="-86.8" font-family="Helvetica,sans-Serif" font-weight="bold" font-size="9.00">styles</text>
</g>
<!-- src/components/BottomTabs.tsx -->
<g id="node1" class="node">
<title>src/components/BottomTabs.tsx</title>
<g id="a_node1"><a xlink:href="src/components/BottomTabs.tsx" xlink:title="BottomTabs.tsx">
<path fill="#bbfeff" stroke="black" d="M230,-132C230,-132 156,-132 156,-132 153,-132 150,-129 150,-126 150,-126 150,-120 150,-120 150,-117 153,-114 156,-114 156,-114 230,-114 230,-114 233,-114 236,-117 236,-120 236,-120 236,-126 236,-126 236,-129 233,-132 230,-132"/>
<text text-anchor="start" x="158" y="-120.8" font-family="Helvetica,sans-Serif" font-size="9.00">BottomTabs.tsx</text>
</a>
</g>
</g>
<!-- src/components/DiscussionForum.tsx -->
<g id="node2" class="node">
<title>src/components/DiscussionForum.tsx</title>
<g id="a_node2"><a xlink:href="src/components/DiscussionForum.tsx" xlink:title="DiscussionForum.tsx">
<path fill="#bbfeff" stroke="black" d="M370,-177C370,-177 273,-177 273,-177 270,-177 267,-174 267,-171 267,-171 267,-165 267,-165 267,-162 270,-159 273,-159 273,-159 370,-159 370,-159 373,-159 376,-162 376,-165 376,-165 376,-171 376,-171 376,-174 373,-177 370,-177"/>
<text text-anchor="start" x="275" y="-165.8" font-family="Helvetica,sans-Serif" font-size="9.00">DiscussionForum.tsx</text>
</a>
</g>
</g>
<!-- src/data.ts -->
<g id="node3" class="node">
<title>src/data.ts</title>
<g id="a_node3"><a xlink:href="src/data.ts" xlink:title="data.ts">
<path fill="#ddfeff" stroke="black" d="M440,-229C440,-229 398,-229 398,-229 395,-229 392,-226 392,-223 392,-223 392,-217 392,-217 392,-214 395,-211 398,-211 398,-211 440,-211 440,-211 443,-211 446,-214 446,-217 446,-217 446,-223 446,-223 446,-226 443,-229 440,-229"/>
<text text-anchor="start" x="403" y="-217.8" font-family="Helvetica,sans-Serif" font-size="9.00">data.ts</text>
</a>
</g>
</g>
<!-- src/components/DiscussionForum.tsx&#45;&gt;src/data.ts -->
<g id="edge1" class="edge">
<title>src/components/DiscussionForum.tsx&#45;&gt;src/data.ts</title>
<path fill="none" stroke="#000000" stroke-width="2" stroke-opacity="0.200000" d="M371.24,-177C375.7,-178.67 380.03,-180.65 384,-183 393.64,-188.69 402.16,-197.98 408.26,-205.83"/>
<polygon fill="#000000" fill-opacity="0.200000" stroke="#000000" stroke-width="2" stroke-opacity="0.200000" points="406.82,-207.4 412.09,-210.97 410.19,-204.9 406.82,-207.4"/>
</g>
<!-- src/components/Drawer.tsx -->
<g id="node4" class="node">
<title>src/components/Drawer.tsx</title>
<g id="a_node4"><a xlink:href="src/components/Drawer.tsx" xlink:title="Drawer.tsx">
<path fill="#bbfeff" stroke="black" d="M348,-207C348,-207 295,-207 295,-207 292,-207 289,-204 289,-201 289,-201 289,-195 289,-195 289,-192 292,-189 295,-189 295,-189 348,-189 348,-189 351,-189 354,-192 354,-195 354,-195 354,-201 354,-201 354,-204 351,-207 348,-207"/>
<text text-anchor="start" x="297" y="-195.8" font-family="Helvetica,sans-Serif" font-size="9.00">Drawer.tsx</text>
</a>
</g>
</g>
<!-- src/components/FeaturedCompanies.tsx -->
<g id="node5" class="node">
<title>src/components/FeaturedCompanies.tsx</title>
<g id="a_node5"><a xlink:href="src/components/FeaturedCompanies.tsx" xlink:title="FeaturedCompanies.tsx">
<path fill="#bbfeff" stroke="black" d="M248,-192C248,-192 138,-192 138,-192 135,-192 132,-189 132,-186 132,-186 132,-180 132,-180 132,-177 135,-174 138,-174 138,-174 248,-174 248,-174 251,-174 254,-177 254,-180 254,-180 254,-186 254,-186 254,-189 251,-192 248,-192"/>
<text text-anchor="start" x="140" y="-180.8" font-family="Helvetica,sans-Serif" font-size="9.00">FeaturedCompanies.tsx</text>
</a>
</g>
</g>
<!-- src/components/FeaturedCompanies.tsx&#45;&gt;src/data.ts -->
<g id="edge2" class="edge">
<title>src/components/FeaturedCompanies.tsx&#45;&gt;src/data.ts</title>
<path fill="none" stroke="#000000" stroke-width="2" stroke-opacity="0.200000" d="M242.34,-192.06C246.44,-193.72 250.39,-195.68 254,-198 261.19,-202.61 258.39,-209.13 266,-213 303.63,-232.16 353.53,-230.12 385.7,-225.89"/>
<polygon fill="#000000" fill-opacity="0.200000" stroke="#000000" stroke-width="2" stroke-opacity="0.200000" points="386.24,-227.93 391.89,-225.02 385.66,-223.78 386.24,-227.93"/>
</g>
<!-- src/components/MainBody.tsx -->
<g id="node6" class="node">
<title>src/components/MainBody.tsx</title>
<g id="a_node6"><a xlink:href="src/components/MainBody.tsx" xlink:title="MainBody.tsx">
<path fill="#bbfeff" stroke="black" d="M224.5,-162C224.5,-162 161.5,-162 161.5,-162 158.5,-162 155.5,-159 155.5,-156 155.5,-156 155.5,-150 155.5,-150 155.5,-147 158.5,-144 161.5,-144 161.5,-144 224.5,-144 224.5,-144 227.5,-144 230.5,-147 230.5,-150 230.5,-150 230.5,-156 230.5,-156 230.5,-159 227.5,-162 224.5,-162"/>
<text text-anchor="start" x="163.5" y="-150.8" font-family="Helvetica,sans-Serif" font-size="9.00">MainBody.tsx</text>
</a>
</g>
</g>
<!-- src/components/MainBody.tsx&#45;&gt;src/components/DiscussionForum.tsx -->
<g id="edge3" class="edge">
<title>src/components/MainBody.tsx&#45;&gt;src/components/DiscussionForum.tsx</title>
<path fill="none" stroke="#000000" stroke-width="2" stroke-opacity="0.200000" d="M230.59,-157.34C239.98,-158.45 250.34,-159.68 260.57,-160.89"/>
<polygon fill="#000000" fill-opacity="0.200000" stroke="#000000" stroke-width="2" stroke-opacity="0.200000" points="260.37,-162.99 266.58,-161.61 260.87,-158.81 260.37,-162.99"/>
</g>
<!-- src/components/MainBody.tsx&#45;&gt;src/components/Drawer.tsx -->
<g id="edge4" class="edge">
<title>src/components/MainBody.tsx&#45;&gt;src/components/Drawer.tsx</title>
<path fill="none" stroke="#000000" stroke-width="2" stroke-opacity="0.200000" d="M230.78,-158.2C238.84,-160.4 247.04,-163.53 254,-168 261.19,-172.61 258.87,-178.3 266,-183 271.1,-186.36 276.95,-188.97 282.87,-191"/>
<polygon fill="#000000" fill-opacity="0.200000" stroke="#000000" stroke-width="2" stroke-opacity="0.200000" points="282.44,-193.07 288.79,-192.85 283.69,-189.06 282.44,-193.07"/>
</g>
<!-- src/components/MarketStories.tsx -->
<g id="node7" class="node">
<title>src/components/MarketStories.tsx</title>
<g id="a_node7"><a xlink:href="src/components/MarketStories.tsx" xlink:title="MarketStories.tsx">
<path fill="#bbfeff" stroke="black" d="M363,-147C363,-147 280,-147 280,-147 277,-147 274,-144 274,-141 274,-141 274,-135 274,-135 274,-132 277,-129 280,-129 280,-129 363,-129 363,-129 366,-129 369,-132 369,-135 369,-135 369,-141 369,-141 369,-144 366,-147 363,-147"/>
<text text-anchor="start" x="282" y="-135.8" font-family="Helvetica,sans-Serif" font-size="9.00">MarketStories.tsx</text>
</a>
</g>
</g>
<!-- src/components/MainBody.tsx&#45;&gt;src/components/MarketStories.tsx -->
<g id="edge5" class="edge">
<title>src/components/MainBody.tsx&#45;&gt;src/components/MarketStories.tsx</title>
<path fill="none" stroke="#000000" stroke-width="2" stroke-opacity="0.200000" d="M230.59,-148.66C242.13,-147.29 255.11,-145.75 267.55,-144.28"/>
<polygon fill="#000000" fill-opacity="0.200000" stroke="#000000" stroke-width="2" stroke-opacity="0.200000" points="267.9,-146.35 273.61,-143.56 267.4,-142.18 267.9,-146.35"/>
</g>
<!-- src/hooks/useMediaQuery.ts -->
<g id="node8" class="node">
<title>src/hooks/useMediaQuery.ts</title>
<g id="a_node8"><a xlink:href="src/hooks/useMediaQuery.ts" xlink:title="useMediaQuery.ts">
<path fill="#ddfeff" stroke="black" d="M363,-312C363,-312 280,-312 280,-312 277,-312 274,-309 274,-306 274,-306 274,-300 274,-300 274,-297 277,-294 280,-294 280,-294 363,-294 363,-294 366,-294 369,-297 369,-300 369,-300 369,-306 369,-306 369,-309 366,-312 363,-312"/>
<text text-anchor="start" x="282" y="-300.8" font-family="Helvetica,sans-Serif" font-size="9.00">useMediaQuery.ts</text>
</a>
</g>
</g>
<!-- src/components/MainBody.tsx&#45;&gt;src/hooks/useMediaQuery.ts -->
<g id="edge6" class="edge">
<title>src/components/MainBody.tsx&#45;&gt;src/hooks/useMediaQuery.ts</title>
<path fill="none" stroke="#000000" stroke-width="2" stroke-opacity="0.200000" d="M230.53,-154.92C239.38,-157.15 248.01,-161.11 254,-168 287.14,-206.11 235.58,-240.69 266,-281 268.98,-284.95 272.79,-288.2 277.01,-290.86"/>
<polygon fill="#000000" fill-opacity="0.200000" stroke="#000000" stroke-width="2" stroke-opacity="0.200000" points="276.27,-292.85 282.53,-293.93 278.31,-289.18 276.27,-292.85"/>
</g>
<!-- src/components/MarketStories.tsx&#45;&gt;src/data.ts -->
<g id="edge7" class="edge">
<title>src/components/MarketStories.tsx&#45;&gt;src/data.ts</title>
<path fill="none" stroke="#000000" stroke-width="2" stroke-opacity="0.200000" d="M369.2,-144.75C374.52,-146.83 379.61,-149.52 384,-153 400.46,-166.04 409.66,-189.18 414.23,-204.56"/>
<polygon fill="#000000" fill-opacity="0.200000" stroke="#000000" stroke-width="2" stroke-opacity="0.200000" points="412.28,-205.4 415.91,-210.62 416.33,-204.28 412.28,-205.4"/>
</g>
<!-- src/components/NavBar.tsx -->
<g id="node9" class="node">
<title>src/components/NavBar.tsx</title>
<g id="a_node9"><a xlink:href="src/components/NavBar.tsx" xlink:title="NavBar.tsx">
<path fill="#bbfeff" stroke="black" d="M219.5,-252C219.5,-252 166.5,-252 166.5,-252 163.5,-252 160.5,-249 160.5,-246 160.5,-246 160.5,-240 160.5,-240 160.5,-237 163.5,-234 166.5,-234 166.5,-234 219.5,-234 219.5,-234 222.5,-234 225.5,-237 225.5,-240 225.5,-240 225.5,-246 225.5,-246 225.5,-249 222.5,-252 219.5,-252"/>
<text text-anchor="start" x="168.5" y="-240.8" font-family="Helvetica,sans-Serif" font-size="9.00">NavBar.tsx</text>
</a>
</g>
</g>
<!-- src/components/NavBar.tsx&#45;&gt;src/data.ts -->
<g id="edge8" class="edge">
<title>src/components/NavBar.tsx&#45;&gt;src/data.ts</title>
<path fill="none" stroke="#000000" stroke-width="2" stroke-opacity="0.200000" d="M196.79,-252.19C204.03,-274.15 225.67,-329.41 266,-351 312.24,-375.75 342.52,-383.09 384,-351 402.3,-336.84 412.57,-266.91 416.33,-235.42"/>
<polygon fill="#000000" fill-opacity="0.200000" stroke="#000000" stroke-width="2" stroke-opacity="0.200000" points="418.43,-235.52 417.04,-229.31 414.26,-235.03 418.43,-235.52"/>
</g>
<!-- src/components/PopularStocksBar.tsx -->
<g id="node10" class="node">
<title>src/components/PopularStocksBar.tsx</title>
<g id="a_node10"><a xlink:href="src/components/PopularStocksBar.tsx" xlink:title="PopularStocksBar.tsx">
<path fill="#bbfeff" stroke="black" d="M242.5,-222C242.5,-222 143.5,-222 143.5,-222 140.5,-222 137.5,-219 137.5,-216 137.5,-216 137.5,-210 137.5,-210 137.5,-207 140.5,-204 143.5,-204 143.5,-204 242.5,-204 242.5,-204 245.5,-204 248.5,-207 248.5,-210 248.5,-210 248.5,-216 248.5,-216 248.5,-219 245.5,-222 242.5,-222"/>
<text text-anchor="start" x="145.5" y="-210.8" font-family="Helvetica,sans-Serif" font-size="9.00">PopularStocksBar.tsx</text>
</a>
</g>
</g>
<!-- src/components/PopularStocksBar.tsx&#45;&gt;src/data.ts -->
<g id="edge9" class="edge">
<title>src/components/PopularStocksBar.tsx&#45;&gt;src/data.ts</title>
<path fill="none" stroke="#000000" stroke-width="2" stroke-opacity="0.200000" d="M247.31,-222.1C249.77,-223.78 252.03,-225.73 254,-228 270.57,-247.05 247.22,-324.11 266,-341 285.5,-358.54 363.1,-356.84 384,-341 400.9,-328.2 411.73,-265.12 415.97,-235.46"/>
<polygon fill="#000000" fill-opacity="0.200000" stroke="#000000" stroke-width="2" stroke-opacity="0.200000" points="418.08,-235.58 416.82,-229.35 413.92,-235 418.08,-235.58"/>
</g>
<!-- src/pages/_app.tsx -->
<g id="node11" class="node">
<title>src/pages/_app.tsx</title>
<g id="a_node11"><a xlink:href="src/pages/_app.tsx" xlink:title="_app.tsx">
<path fill="#bbfeff" stroke="black" d="M87.5,-102C87.5,-102 44.5,-102 44.5,-102 41.5,-102 38.5,-99 38.5,-96 38.5,-96 38.5,-90 38.5,-90 38.5,-87 41.5,-84 44.5,-84 44.5,-84 87.5,-84 87.5,-84 90.5,-84 93.5,-87 93.5,-90 93.5,-90 93.5,-96 93.5,-96 93.5,-99 90.5,-102 87.5,-102"/>
<text text-anchor="start" x="46.5" y="-90.8" font-family="Helvetica,sans-Serif" font-size="9.00">_app.tsx</text>
</a>
</g>
</g>
<!-- src/styles/globals.css -->
<g id="node12" class="node">
<title>src/styles/globals.css</title>
<g id="a_node12"><a xlink:href="src/styles/globals.css" xlink:title="globals.css">
<path fill="#ffffcc" stroke="black" d="M219.5,-42C219.5,-42 166.5,-42 166.5,-42 163.5,-42 160.5,-39 160.5,-36 160.5,-36 160.5,-30 160.5,-30 160.5,-27 163.5,-24 166.5,-24 166.5,-24 219.5,-24 219.5,-24 222.5,-24 225.5,-27 225.5,-30 225.5,-30 225.5,-36 225.5,-36 225.5,-39 222.5,-42 219.5,-42"/>
<text text-anchor="start" x="168.5" y="-30.8" font-family="Helvetica,sans-Serif" font-size="9.00">globals.css</text>
</a>
</g>
</g>
<!-- src/pages/_app.tsx&#45;&gt;src/styles/globals.css -->
<g id="edge10" class="edge">
<title>src/pages/_app.tsx&#45;&gt;src/styles/globals.css</title>
<path fill="none" stroke="#000000" stroke-width="2" stroke-opacity="0.200000" d="M75.79,-83.92C86.29,-73.62 104.86,-57.07 124,-48 133.41,-43.54 144.18,-40.38 154.33,-38.16"/>
<polygon fill="#000000" fill-opacity="0.200000" stroke="#000000" stroke-width="2" stroke-opacity="0.200000" points="154.77,-40.21 160.22,-36.95 153.92,-36.1 154.77,-40.21"/>
</g>
<!-- src/pages/_document.tsx -->
<g id="node13" class="node">
<title>src/pages/_document.tsx</title>
<g id="a_node13"><a xlink:href="src/pages/_document.tsx" xlink:title="no&#45;orphans">
<path fill="#ccffcc" stroke="orange" d="M102,-132C102,-132 30,-132 30,-132 27,-132 24,-129 24,-126 24,-126 24,-120 24,-120 24,-117 27,-114 30,-114 30,-114 102,-114 102,-114 105,-114 108,-117 108,-120 108,-120 108,-126 108,-126 108,-129 105,-132 102,-132"/>
<text text-anchor="start" x="32" y="-120.8" font-family="Helvetica,sans-Serif" font-size="9.00" fill="orange">_document.tsx</text>
</a>
</g>
</g>
<!-- src/pages/api/hello.ts -->
<g id="node14" class="node">
<title>src/pages/api/hello.ts</title>
<g id="a_node14"><a xlink:href="src/pages/api/hello.ts" xlink:title="no&#45;orphans">
<path fill="#ccffcc" stroke="orange" d="M87,-196C87,-196 45,-196 45,-196 42,-196 39,-193 39,-190 39,-190 39,-184 39,-184 39,-181 42,-178 45,-178 45,-178 87,-178 87,-178 90,-178 93,-181 93,-184 93,-184 93,-190 93,-190 93,-193 90,-196 87,-196"/>
<text text-anchor="start" x="49.5" y="-184.8" font-family="Helvetica,sans-Serif" font-size="9.00" fill="orange">hello.ts</text>
</a>
</g>
</g>
<!-- src/pages/index.tsx -->
<g id="node15" class="node">
<title>src/pages/index.tsx</title>
<g id="a_node15"><a xlink:href="src/pages/index.tsx" xlink:title="index.tsx">
<path fill="#bbfeff" stroke="black" d="M89,-162C89,-162 43,-162 43,-162 40,-162 37,-159 37,-156 37,-156 37,-150 37,-150 37,-147 40,-144 43,-144 43,-144 89,-144 89,-144 92,-144 95,-147 95,-150 95,-150 95,-156 95,-156 95,-159 92,-162 89,-162"/>
<text text-anchor="start" x="45" y="-150.8" font-family="Helvetica,sans-Serif" font-size="9.00">index.tsx</text>
</a>
</g>
</g>
<!-- src/pages/index.tsx&#45;&gt;src/components/BottomTabs.tsx -->
<g id="edge11" class="edge">
<title>src/pages/index.tsx&#45;&gt;src/components/BottomTabs.tsx</title>
<path fill="none" stroke="#000000" stroke-width="2" stroke-opacity="0.200000" d="M95.07,-145.37C104.27,-142.94 114.55,-140.28 124,-138 130.39,-136.46 137.13,-134.89 143.78,-133.38"/>
<polygon fill="#000000" fill-opacity="0.200000" stroke="#000000" stroke-width="2" stroke-opacity="0.200000" points="144.47,-135.38 149.86,-132.02 143.55,-131.29 144.47,-135.38"/>
</g>
<!-- src/pages/index.tsx&#45;&gt;src/components/FeaturedCompanies.tsx -->
<g id="edge12" class="edge">
<title>src/pages/index.tsx&#45;&gt;src/components/FeaturedCompanies.tsx</title>
<path fill="none" stroke="#000000" stroke-width="2" stroke-opacity="0.200000" d="M95.07,-160.63C104.27,-163.06 114.55,-165.72 124,-168 130.39,-169.54 137.13,-171.11 143.78,-172.62"/>
<polygon fill="#000000" fill-opacity="0.200000" stroke="#000000" stroke-width="2" stroke-opacity="0.200000" points="143.55,-174.71 149.86,-173.98 144.47,-170.62 143.55,-174.71"/>
</g>
<!-- src/pages/index.tsx&#45;&gt;src/components/MainBody.tsx -->
<g id="edge13" class="edge">
<title>src/pages/index.tsx&#45;&gt;src/components/MainBody.tsx</title>
<path fill="none" stroke="#000000" stroke-width="2" stroke-opacity="0.200000" d="M95.05,-153C110.95,-153 131.17,-153 149.03,-153"/>
<polygon fill="#000000" fill-opacity="0.200000" stroke="#000000" stroke-width="2" stroke-opacity="0.200000" points="149.49,-155.1 155.49,-153 149.49,-150.9 149.49,-155.1"/>
</g>
<!-- src/pages/index.tsx&#45;&gt;src/components/NavBar.tsx -->
<g id="edge14" class="edge">
<title>src/pages/index.tsx&#45;&gt;src/components/NavBar.tsx</title>
<path fill="none" stroke="#000000" stroke-width="2" stroke-opacity="0.200000" d="M95.02,-155.28C102.86,-157.29 110.69,-160.83 116,-167 133.85,-187.71 105.52,-207.85 124,-228 131.72,-236.42 143.01,-240.67 154.18,-242.68"/>
<polygon fill="#000000" fill-opacity="0.200000" stroke="#000000" stroke-width="2" stroke-opacity="0.200000" points="154.1,-244.79 160.34,-243.57 154.71,-240.63 154.1,-244.79"/>
</g>
<!-- src/pages/index.tsx&#45;&gt;src/components/PopularStocksBar.tsx -->
<g id="edge15" class="edge">
<title>src/pages/index.tsx&#45;&gt;src/components/PopularStocksBar.tsx</title>
<path fill="none" stroke="#000000" stroke-width="2" stroke-opacity="0.200000" d="M95.08,-155.83C102.74,-157.87 110.44,-161.3 116,-167 125.93,-177.19 113.76,-188.12 124,-198 126.27,-200.19 128.79,-202.1 131.48,-203.74"/>
<polygon fill="#000000" fill-opacity="0.200000" stroke="#000000" stroke-width="2" stroke-opacity="0.200000" points="130.92,-205.83 137.21,-206.78 132.89,-202.11 130.92,-205.83"/>
</g>
<!-- src/styles/Home.module.css -->
<g id="node16" class="node">
<title>src/styles/Home.module.css</title>
<g id="a_node16"><a xlink:href="src/styles/Home.module.css" xlink:title="Home.module.css">
<path fill="#ffffcc" stroke="black" d="M235.5,-72C235.5,-72 150.5,-72 150.5,-72 147.5,-72 144.5,-69 144.5,-66 144.5,-66 144.5,-60 144.5,-60 144.5,-57 147.5,-54 150.5,-54 150.5,-54 235.5,-54 235.5,-54 238.5,-54 241.5,-57 241.5,-60 241.5,-60 241.5,-66 241.5,-66 241.5,-69 238.5,-72 235.5,-72"/>
<text text-anchor="start" x="152.5" y="-60.8" font-family="Helvetica,sans-Serif" font-size="9.00">Home.module.css</text>
</a>
</g>
</g>
<!-- src/pages/index.tsx&#45;&gt;src/styles/Home.module.css -->
<g id="edge16" class="edge">
<title>src/pages/index.tsx&#45;&gt;src/styles/Home.module.css</title>
<path fill="none" stroke="#000000" stroke-width="2" stroke-opacity="0.200000" d="M95.21,-149.65C102.87,-147.46 110.55,-143.86 116,-138 126.87,-126.32 114.57,-115.88 124,-103 133.2,-90.43 147.65,-81.13 160.87,-74.68"/>
<polygon fill="#000000" fill-opacity="0.200000" stroke="#000000" stroke-width="2" stroke-opacity="0.200000" points="161.89,-76.52 166.44,-72.09 160.11,-72.72 161.89,-76.52"/>
</g>
</g>
</svg>
